<?xml version="1.0" encoding="UTF-8"?>
<svg width="150" height="150" viewBox="0 0 150 150" xmlns="http://www.w3.org/2000/svg">
  <style>
    .primary { fill: #4c6fff; }
    .secondary { fill: #ffde59; }
  </style>
  <!-- Jumping figure -->
  <g transform="translate(30, 20)">
    <!-- Body -->
    <path class="primary" d="M40 40 C40 30, 60 30, 60 40 L60 70 C60 80, 40 80, 40 70 Z"/>
    <!-- Head -->
    <circle class="primary" cx="50" cy="25" r="15"/>
    <!-- Arms raised -->
    <path class="primary" d="M45 45 L30 25 L35 20 L50 35"/>
    <path class="primary" d="M55 45 L70 25 L65 20 L50 35"/>
    <!-- Legs spread -->
    <path class="primary" d="M45 70 L25 85 L30 90 L45 80"/>
    <path class="primary" d="M55 70 L75 85 L70 90 L55 80"/>
    <!-- Speech bubble -->
    <path class="secondary" d="M70 15 L90 5 L85 25 Z"/>
    <circle class="secondary" cx="85" cy="15" r="10"/>
  </g>
</svg>
